<svg width="82" height="82" viewBox="0 0 82 82" fill="none" xmlns="http://www.w3.org/2000/svg">
<rect width="82" height="82" fill="#F5F5F5"/>
<g clip-path="url(#clip0_0_1)">
<rect width="1440" height="5257" transform="translate(-553 -208)" fill="white"/>
<rect x="-553" y="-208" width="1440" height="800" fill="#FFF8F3"/>
<circle cx="41" cy="41" r="41" fill="#FF9051"/>
<path d="M26.2833 40.168C25.7327 40.168 25.2007 40.0653 24.6873 39.86C24.174 39.6453 23.7353 39.3467 23.3713 38.964C23.0073 38.572 22.7693 38.1053 22.6573 37.564L24.5753 36.92C24.7153 37.368 24.9393 37.6947 25.2473 37.9C25.5553 38.1053 25.9007 38.208 26.2833 38.208C26.61 38.208 26.8947 38.1427 27.1373 38.012C27.38 37.872 27.5667 37.6807 27.6973 37.438C27.8373 37.186 27.9073 36.8967 27.9073 36.57C27.9073 36.2433 27.8373 35.9587 27.6973 35.716C27.5667 35.4733 27.38 35.2867 27.1373 35.156C26.8947 35.016 26.61 34.946 26.2833 34.946C25.9473 34.946 25.6487 35.0207 25.3873 35.17C25.126 35.31 24.9347 35.5293 24.8133 35.828L23.0353 35.408L23.8753 29.57H29.6993V31.39H24.7573L25.5693 30.41L24.9953 34.75L24.4073 34.232C24.6407 33.8493 24.9347 33.5693 25.2893 33.392C25.6533 33.2147 26.12 33.126 26.6893 33.126C27.3893 33.126 27.9913 33.2753 28.4953 33.574C28.9993 33.8633 29.3867 34.2647 29.6573 34.778C29.9373 35.2913 30.0773 35.8887 30.0773 36.57C30.0773 37.2513 29.9093 37.8673 29.5733 38.418C29.2467 38.9593 28.7987 39.3887 28.2293 39.706C27.66 40.014 27.0113 40.168 26.2833 40.168ZM35.6529 40.168C34.8223 40.168 34.0896 39.944 33.4549 39.496C32.8296 39.048 32.3396 38.418 31.9849 37.606C31.6303 36.794 31.4529 35.8513 31.4529 34.778C31.4529 33.6953 31.6256 32.7527 31.9709 31.95C32.3256 31.1473 32.8156 30.522 33.4409 30.074C34.0756 29.626 34.8083 29.402 35.6389 29.402C36.4883 29.402 37.2256 29.626 37.8509 30.074C38.4856 30.522 38.9756 31.152 39.3209 31.964C39.6756 32.7667 39.8529 33.7047 39.8529 34.778C39.8529 35.8513 39.6756 36.794 39.3209 37.606C38.9756 38.4087 38.4856 39.0387 37.8509 39.496C37.2256 39.944 36.4929 40.168 35.6529 40.168ZM35.6669 38.208C36.0963 38.208 36.4603 38.0727 36.7589 37.802C37.0576 37.5313 37.2863 37.1393 37.4449 36.626C37.6036 36.1127 37.6829 35.4967 37.6829 34.778C37.6829 34.0593 37.6036 33.448 37.4449 32.944C37.2863 32.4307 37.0529 32.0387 36.7449 31.768C36.4463 31.4973 36.0776 31.362 35.6389 31.362C35.2096 31.362 34.8456 31.4973 34.5469 31.768C34.2483 32.0387 34.0196 32.4307 33.8609 32.944C33.7023 33.448 33.6229 34.0593 33.6229 34.778C33.6229 35.4873 33.7023 36.0987 33.8609 36.612C34.0196 37.1253 34.2483 37.522 34.5469 37.802C34.8549 38.0727 35.2283 38.208 35.6669 38.208ZM45.4557 40.168C44.625 40.168 43.8923 39.944 43.2577 39.496C42.6323 39.048 42.1423 38.418 41.7877 37.606C41.433 36.794 41.2557 35.8513 41.2557 34.778C41.2557 33.6953 41.4283 32.7527 41.7737 31.95C42.1283 31.1473 42.6183 30.522 43.2437 30.074C43.8783 29.626 44.611 29.402 45.4417 29.402C46.291 29.402 47.0283 29.626 47.6537 30.074C48.2883 30.522 48.7783 31.152 49.1237 31.964C49.4783 32.7667 49.6557 33.7047 49.6557 34.778C49.6557 35.8513 49.4783 36.794 49.1237 37.606C48.7783 38.4087 48.2883 39.0387 47.6537 39.496C47.0283 39.944 46.2957 40.168 45.4557 40.168ZM45.4697 38.208C45.899 38.208 46.263 38.0727 46.5617 37.802C46.8603 37.5313 47.089 37.1393 47.2477 36.626C47.4063 36.1127 47.4857 35.4967 47.4857 34.778C47.4857 34.0593 47.4063 33.448 47.2477 32.944C47.089 32.4307 46.8557 32.0387 46.5477 31.768C46.249 31.4973 45.8803 31.362 45.4417 31.362C45.0123 31.362 44.6483 31.4973 44.3497 31.768C44.051 32.0387 43.8223 32.4307 43.6637 32.944C43.505 33.448 43.4257 34.0593 43.4257 34.778C43.4257 35.4873 43.505 36.0987 43.6637 36.612C43.8223 37.1253 44.051 37.522 44.3497 37.802C44.6577 38.0727 45.031 38.208 45.4697 38.208ZM54.2364 40V37.368H51.6044V35.618H54.2364V33H55.9864V35.618H58.6044V37.368H55.9864V40H54.2364Z" fill="white"/>
<path d="M19.1445 54V46.55H21.7745C22.2678 46.55 22.7011 46.6433 23.0745 46.83C23.4478 47.0167 23.7378 47.2833 23.9445 47.63C24.1578 47.9767 24.2645 48.3833 24.2645 48.85C24.2645 49.3167 24.1578 49.7233 23.9445 50.07C23.7378 50.41 23.4478 50.6767 23.0745 50.87C22.7078 51.0567 22.2745 51.15 21.7745 51.15H20.1245V54H19.1445ZM20.1245 50.25H21.8045C22.1045 50.25 22.3645 50.1933 22.5845 50.08C22.8045 49.9667 22.9745 49.8033 23.0945 49.59C23.2145 49.3767 23.2745 49.13 23.2745 48.85C23.2745 48.5633 23.2145 48.3167 23.0945 48.11C22.9745 47.8967 22.8045 47.7333 22.5845 47.62C22.3645 47.5067 22.1045 47.45 21.8045 47.45H20.1245V50.25ZM27.8445 54.12C27.3245 54.12 26.8545 54 26.4345 53.76C26.0145 53.5133 25.6811 53.1767 25.4345 52.75C25.1878 52.3233 25.0645 51.84 25.0645 51.3C25.0645 50.76 25.1845 50.28 25.4245 49.86C25.6711 49.44 26.0045 49.1067 26.4245 48.86C26.8445 48.6133 27.3178 48.49 27.8445 48.49C28.3645 48.49 28.8345 48.6133 29.2545 48.86C29.6745 49.1 30.0045 49.43 30.2445 49.85C30.4911 50.27 30.6145 50.7533 30.6145 51.3C30.6145 51.8467 30.4878 52.3333 30.2345 52.76C29.9811 53.18 29.6445 53.5133 29.2245 53.76C28.8111 54 28.3511 54.12 27.8445 54.12ZM27.8445 53.22C28.1778 53.22 28.4778 53.1367 28.7445 52.97C29.0178 52.8033 29.2311 52.5733 29.3845 52.28C29.5445 51.9867 29.6245 51.66 29.6245 51.3C29.6245 50.9333 29.5445 50.61 29.3845 50.33C29.2311 50.0433 29.0178 49.8167 28.7445 49.65C28.4778 49.4767 28.1778 49.39 27.8445 49.39C27.5045 49.39 27.1978 49.4767 26.9245 49.65C26.6578 49.8167 26.4445 50.0433 26.2845 50.33C26.1245 50.61 26.0445 50.9333 26.0445 51.3C26.0445 51.66 26.1245 51.9867 26.2845 52.28C26.4445 52.5733 26.6578 52.8033 26.9245 52.97C27.1978 53.1367 27.5045 53.22 27.8445 53.22ZM34.2774 54.12C33.7708 54.12 33.3141 53.9967 32.9074 53.75C32.5074 53.5033 32.1908 53.1667 31.9574 52.74C31.7241 52.3133 31.6074 51.8367 31.6074 51.31C31.6074 50.77 31.7241 50.29 31.9574 49.87C32.1908 49.4433 32.5074 49.1067 32.9074 48.86C33.3141 48.6133 33.7708 48.49 34.2774 48.49C34.7241 48.49 35.1208 48.5867 35.4674 48.78C35.8141 48.9667 36.0874 49.22 36.2874 49.54L36.1374 49.77V46.43H37.0774V54H36.1674V52.85L36.2874 53.01C36.1008 53.3633 35.8274 53.6367 35.4674 53.83C35.1141 54.0233 34.7174 54.12 34.2774 54.12ZM34.3574 53.22C34.6974 53.22 35.0008 53.1367 35.2674 52.97C35.5341 52.8033 35.7441 52.5767 35.8974 52.29C36.0574 51.9967 36.1374 51.67 36.1374 51.31C36.1374 50.9433 36.0574 50.6167 35.8974 50.33C35.7441 50.0367 35.5341 49.8067 35.2674 49.64C35.0008 49.4733 34.6974 49.39 34.3574 49.39C34.0241 49.39 33.7208 49.4767 33.4474 49.65C33.1808 49.8167 32.9708 50.0433 32.8174 50.33C32.6641 50.61 32.5874 50.9367 32.5874 51.31C32.5874 51.67 32.6641 51.9967 32.8174 52.29C32.9708 52.5767 33.1808 52.8033 33.4474 52.97C33.7141 53.1367 34.0174 53.22 34.3574 53.22ZM41.0169 54.12C40.4902 54.12 40.0202 53.9967 39.6069 53.75C39.2002 53.5033 38.8802 53.1667 38.6469 52.74C38.4135 52.3133 38.2969 51.8333 38.2969 51.3C38.2969 50.76 38.4135 50.28 38.6469 49.86C38.8802 49.44 39.2002 49.1067 39.6069 48.86C40.0202 48.6133 40.4902 48.49 41.0169 48.49C41.3702 48.49 41.7002 48.5533 42.0069 48.68C42.3135 48.8067 42.5835 48.9767 42.8169 49.19C43.0502 49.4033 43.2202 49.6533 43.3269 49.94L42.4969 50.34C42.3702 50.06 42.1769 49.8333 41.9169 49.66C41.6569 49.48 41.3569 49.39 41.0169 49.39C40.6902 49.39 40.3935 49.4733 40.1269 49.64C39.8669 49.8067 39.6602 50.0333 39.5069 50.32C39.3535 50.6067 39.2769 50.9367 39.2769 51.31C39.2769 51.67 39.3535 51.9967 39.5069 52.29C39.6602 52.5767 39.8669 52.8033 40.1269 52.97C40.3935 53.1367 40.6902 53.22 41.0169 53.22C41.3569 53.22 41.6569 53.1333 41.9169 52.96C42.1769 52.78 42.3702 52.5433 42.4969 52.25L43.3269 52.67C43.2202 52.95 43.0502 53.2 42.8169 53.42C42.5835 53.6333 42.3135 53.8033 42.0069 53.93C41.7002 54.0567 41.3702 54.12 41.0169 54.12ZM46.0539 54.12C45.7006 54.12 45.3872 54.0567 45.1139 53.93C44.8472 53.7967 44.6372 53.6167 44.4839 53.39C44.3306 53.1567 44.2539 52.89 44.2539 52.59C44.2539 52.3033 44.3139 52.0467 44.4339 51.82C44.5606 51.5867 44.7539 51.39 45.0139 51.23C45.2806 51.07 45.6139 50.9567 46.0139 50.89L48.0139 50.56V51.34L46.2239 51.64C45.8772 51.7 45.6239 51.81 45.4639 51.97C45.3106 52.13 45.2339 52.3267 45.2339 52.56C45.2339 52.78 45.3206 52.9633 45.4939 53.11C45.6739 53.2567 45.8972 53.33 46.1639 53.33C46.5039 53.33 46.7972 53.26 47.0439 53.12C47.2972 52.9733 47.4939 52.7767 47.6339 52.53C47.7806 52.2833 47.8539 52.01 47.8539 51.71V50.34C47.8539 50.0467 47.7439 49.81 47.5239 49.63C47.3106 49.4433 47.0272 49.35 46.6739 49.35C46.3672 49.35 46.0939 49.43 45.8539 49.59C45.6206 49.7433 45.4472 49.95 45.3339 50.21L44.5239 49.79C44.6239 49.5433 44.7839 49.3233 45.0039 49.13C45.2239 48.93 45.4806 48.7733 45.7739 48.66C46.0672 48.5467 46.3739 48.49 46.6939 48.49C47.1072 48.49 47.4706 48.57 47.7839 48.73C48.0972 48.8833 48.3406 49.1 48.5139 49.38C48.6939 49.6533 48.7839 49.9733 48.7839 50.34V54H47.8739V52.98L48.0439 53.04C47.9306 53.2533 47.7772 53.44 47.5839 53.6C47.3906 53.76 47.1639 53.8867 46.9039 53.98C46.6439 54.0733 46.3606 54.12 46.0539 54.12ZM52.1559 54.12C51.6159 54.12 51.1459 53.9867 50.7459 53.72C50.3459 53.4533 50.0625 53.0933 49.8959 52.64L50.6359 52.28C50.7892 52.6 50.9992 52.8533 51.2659 53.04C51.5325 53.2267 51.8292 53.32 52.1559 53.32C52.4492 53.32 52.6925 53.25 52.8859 53.11C53.0792 52.97 53.1759 52.7867 53.1759 52.56C53.1759 52.4 53.1292 52.2733 53.0359 52.18C52.9492 52.08 52.8425 52.0033 52.7159 51.95C52.5892 51.89 52.4725 51.8467 52.3659 51.82L51.5559 51.59C51.0692 51.45 50.7125 51.25 50.4859 50.99C50.2659 50.73 50.1559 50.4267 50.1559 50.08C50.1559 49.76 50.2359 49.4833 50.3959 49.25C50.5625 49.01 50.7859 48.8233 51.0659 48.69C51.3525 48.5567 51.6725 48.49 52.0259 48.49C52.4992 48.49 52.9225 48.61 53.2959 48.85C53.6759 49.09 53.9459 49.4267 54.1059 49.86L53.3459 50.21C53.2259 49.93 53.0459 49.71 52.8059 49.55C52.5659 49.3833 52.2959 49.3 51.9959 49.3C51.7225 49.3 51.5059 49.37 51.3459 49.51C51.1859 49.6433 51.1059 49.8133 51.1059 50.02C51.1059 50.1733 51.1459 50.3 51.2259 50.4C51.3059 50.4933 51.4025 50.5667 51.5159 50.62C51.6292 50.6667 51.7392 50.7067 51.8459 50.74L52.7259 51C53.1659 51.1267 53.5059 51.3233 53.7459 51.59C53.9925 51.8567 54.1159 52.1767 54.1159 52.55C54.1159 52.85 54.0325 53.12 53.8659 53.36C53.6992 53.6 53.4692 53.7867 53.1759 53.92C52.8825 54.0533 52.5425 54.12 52.1559 54.12ZM57.5233 54.06C56.9966 54.06 56.5899 53.91 56.3033 53.61C56.0233 53.31 55.8833 52.8867 55.8833 52.34V49.5H54.9033V48.61H55.1033C55.3433 48.61 55.5333 48.5367 55.6733 48.39C55.8133 48.2433 55.8833 48.05 55.8833 47.81V47.37H56.8133V48.61H58.0233V49.5H56.8133V52.31C56.8133 52.49 56.8399 52.6467 56.8933 52.78C56.9533 52.9133 57.0499 53.02 57.1833 53.1C57.3166 53.1733 57.4933 53.21 57.7133 53.21C57.7599 53.21 57.8166 53.2067 57.8833 53.2C57.9566 53.1933 58.0233 53.1867 58.0833 53.18V54C57.9966 54.02 57.8999 54.0333 57.7933 54.04C57.6866 54.0533 57.5966 54.06 57.5233 54.06ZM61.2281 54.12C60.6881 54.12 60.2181 53.9867 59.8181 53.72C59.4181 53.4533 59.1348 53.0933 58.9681 52.64L59.7081 52.28C59.8615 52.6 60.0715 52.8533 60.3381 53.04C60.6048 53.2267 60.9015 53.32 61.2281 53.32C61.5215 53.32 61.7648 53.25 61.9581 53.11C62.1515 52.97 62.2481 52.7867 62.2481 52.56C62.2481 52.4 62.2015 52.2733 62.1081 52.18C62.0215 52.08 61.9148 52.0033 61.7881 51.95C61.6615 51.89 61.5448 51.8467 61.4381 51.82L60.6281 51.59C60.1415 51.45 59.7848 51.25 59.5581 50.99C59.3381 50.73 59.2281 50.4267 59.2281 50.08C59.2281 49.76 59.3081 49.4833 59.4681 49.25C59.6348 49.01 59.8581 48.8233 60.1381 48.69C60.4248 48.5567 60.7448 48.49 61.0981 48.49C61.5715 48.49 61.9948 48.61 62.3681 48.85C62.7481 49.09 63.0181 49.4267 63.1781 49.86L62.4181 50.21C62.2981 49.93 62.1181 49.71 61.8781 49.55C61.6381 49.3833 61.3681 49.3 61.0681 49.3C60.7948 49.3 60.5781 49.37 60.4181 49.51C60.2581 49.6433 60.1781 49.8133 60.1781 50.02C60.1781 50.1733 60.2181 50.3 60.2981 50.4C60.3781 50.4933 60.4748 50.5667 60.5881 50.62C60.7015 50.6667 60.8115 50.7067 60.9181 50.74L61.7981 51C62.2381 51.1267 62.5781 51.3233 62.8181 51.59C63.0648 51.8567 63.1881 52.1767 63.1881 52.55C63.1881 52.85 63.1048 53.12 62.9381 53.36C62.7715 53.6 62.5415 53.7867 62.2481 53.92C61.9548 54.0533 61.6148 54.12 61.2281 54.12Z" fill="#FFEFE7"/>
</g>
<defs>
<clipPath id="clip0_0_1">
<rect width="1440" height="5257" fill="white" transform="translate(-553 -208)"/>
</clipPath>
</defs>
</svg>
